# xmcd CD database file
#
# Track frame offsets:
#	150
#	22793
#	49017
#	104961
#	118622
#	192372
#
# Disc length: 2975 seconds
#
# Revision: 1
# Processed by: cddbd v1.5.2PL0 Copyright (c) Steve Scherf et al.
# Submitted via: CDex 1.51
#
DISCID=4c0b9d06
DTITLE=Bernard Allison Group - Live At The Jazzhaus - CD2
DYEAR=2011
DGENRE=Blues
TTITLE0=Groove With Me
TTITLE1=The Otherside
TTITLE2=Just My Guitar And Me
TTITLE3=Tobys B3
TTITLE4=Serious
TTITLE5=Chills and Thrills
EXTD=YEAR: 2011
EXTT0=
EXTT1=
EXTT2=
EXTT3=
EXTT4=
EXTT5=
PLAYORDER=
